<mxfile host="app.diagrams.net" agent="Mozilla/5.0 (Windows NT 10.0; Win64; x64) AppleWebKit/537.36 (KHTML, like Gecko) Chrome/129.0.0.0 Safari/537.36" version="24.8.1">
  <diagram name="Page-1" id="ED3RVKIGB8l_h0Ks9ra7">
    <mxGraphModel dx="1176" dy="440" grid="1" gridSize="10" guides="1" tooltips="1" connect="1" arrows="1" fold="1" page="1" pageScale="1" pageWidth="827" pageHeight="1169" math="0" shadow="0">
      <root>
        <mxCell id="0" />
        <mxCell id="1" parent="0" />
        <mxCell id="igBMlUZ_AHUM9BY8_jIY-42" value="extends" style="edgeStyle=orthogonalEdgeStyle;rounded=0;orthogonalLoop=1;jettySize=auto;html=1;" edge="1" parent="1" source="igBMlUZ_AHUM9BY8_jIY-1" target="igBMlUZ_AHUM9BY8_jIY-7">
          <mxGeometry x="0.2157" relative="1" as="geometry">
            <mxPoint as="offset" />
          </mxGeometry>
        </mxCell>
        <mxCell id="igBMlUZ_AHUM9BY8_jIY-1" value="Admin User" style="shape=umlActor;verticalLabelPosition=bottom;verticalAlign=top;html=1;outlineConnect=0;" vertex="1" parent="1">
          <mxGeometry x="180" y="150" width="30" height="60" as="geometry" />
        </mxCell>
        <mxCell id="igBMlUZ_AHUM9BY8_jIY-7" value="Non-Admin User" style="shape=umlActor;verticalLabelPosition=bottom;verticalAlign=top;html=1;outlineConnect=0;" vertex="1" parent="1">
          <mxGeometry x="60" y="330" width="30" height="60" as="geometry" />
        </mxCell>
        <mxCell id="igBMlUZ_AHUM9BY8_jIY-8" value="Search for event" style="ellipse;whiteSpace=wrap;html=1;" vertex="1" parent="1">
          <mxGeometry x="135" y="320" width="120" height="80" as="geometry" />
        </mxCell>
        <mxCell id="igBMlUZ_AHUM9BY8_jIY-10" value="Modify an event" style="ellipse;whiteSpace=wrap;html=1;" vertex="1" parent="1">
          <mxGeometry x="450" y="200" width="120" height="80" as="geometry" />
        </mxCell>
        <mxCell id="igBMlUZ_AHUM9BY8_jIY-11" value="Book an event" style="ellipse;whiteSpace=wrap;html=1;" vertex="1" parent="1">
          <mxGeometry x="330" y="270" width="120" height="80" as="geometry" />
        </mxCell>
        <mxCell id="igBMlUZ_AHUM9BY8_jIY-13" value="Delete an event" style="ellipse;whiteSpace=wrap;html=1;" vertex="1" parent="1">
          <mxGeometry x="430" y="110" width="120" height="80" as="geometry" />
        </mxCell>
        <mxCell id="igBMlUZ_AHUM9BY8_jIY-14" value="Add an event" style="ellipse;whiteSpace=wrap;html=1;" vertex="1" parent="1">
          <mxGeometry x="320" y="50" width="120" height="80" as="geometry" />
        </mxCell>
        <mxCell id="igBMlUZ_AHUM9BY8_jIY-15" value="Cancel a booking" style="ellipse;whiteSpace=wrap;html=1;" vertex="1" parent="1">
          <mxGeometry x="330" y="360" width="120" height="80" as="geometry" />
        </mxCell>
        <mxCell id="igBMlUZ_AHUM9BY8_jIY-16" value="Login" style="ellipse;whiteSpace=wrap;html=1;" vertex="1" parent="1">
          <mxGeometry x="640" y="80" width="120" height="80" as="geometry" />
        </mxCell>
        <mxCell id="igBMlUZ_AHUM9BY8_jIY-18" value="precedes" style="endArrow=open;endSize=12;dashed=1;html=1;rounded=0;" edge="1" parent="1" source="igBMlUZ_AHUM9BY8_jIY-16" target="igBMlUZ_AHUM9BY8_jIY-10">
          <mxGeometry width="160" relative="1" as="geometry">
            <mxPoint x="570" y="240" as="sourcePoint" />
            <mxPoint x="730" y="240" as="targetPoint" />
          </mxGeometry>
        </mxCell>
        <mxCell id="igBMlUZ_AHUM9BY8_jIY-19" value="precedes" style="endArrow=open;endSize=12;dashed=1;html=1;rounded=0;" edge="1" parent="1" source="igBMlUZ_AHUM9BY8_jIY-16" target="igBMlUZ_AHUM9BY8_jIY-14">
          <mxGeometry width="160" relative="1" as="geometry">
            <mxPoint x="610" y="160" as="sourcePoint" />
            <mxPoint x="506" y="101" as="targetPoint" />
          </mxGeometry>
        </mxCell>
        <mxCell id="igBMlUZ_AHUM9BY8_jIY-20" value="precedes" style="endArrow=open;endSize=12;dashed=1;html=1;rounded=0;" edge="1" parent="1" source="igBMlUZ_AHUM9BY8_jIY-16" target="igBMlUZ_AHUM9BY8_jIY-13">
          <mxGeometry width="160" relative="1" as="geometry">
            <mxPoint x="618.4331253695975" y="205.60893304309062" as="sourcePoint" />
            <mxPoint x="540" y="266.15999999999997" as="targetPoint" />
          </mxGeometry>
        </mxCell>
        <mxCell id="igBMlUZ_AHUM9BY8_jIY-28" value="" style="endArrow=none;html=1;rounded=0;" edge="1" parent="1" source="igBMlUZ_AHUM9BY8_jIY-1" target="igBMlUZ_AHUM9BY8_jIY-14">
          <mxGeometry width="50" height="50" relative="1" as="geometry">
            <mxPoint x="180" y="160" as="sourcePoint" />
            <mxPoint x="410" y="107" as="targetPoint" />
            <Array as="points" />
          </mxGeometry>
        </mxCell>
        <mxCell id="igBMlUZ_AHUM9BY8_jIY-34" value="" style="endArrow=none;html=1;rounded=0;" edge="1" parent="1" source="igBMlUZ_AHUM9BY8_jIY-7" target="igBMlUZ_AHUM9BY8_jIY-8">
          <mxGeometry width="50" height="50" relative="1" as="geometry">
            <mxPoint x="120" y="280" as="sourcePoint" />
            <mxPoint x="343" y="373" as="targetPoint" />
            <Array as="points" />
          </mxGeometry>
        </mxCell>
        <mxCell id="igBMlUZ_AHUM9BY8_jIY-35" value="extends" style="endArrow=open;endSize=12;dashed=1;html=1;rounded=0;" edge="1" parent="1" source="igBMlUZ_AHUM9BY8_jIY-13" target="igBMlUZ_AHUM9BY8_jIY-43">
          <mxGeometry x="0.0081" width="160" relative="1" as="geometry">
            <mxPoint x="636" y="255" as="sourcePoint" />
            <mxPoint x="240" y="370" as="targetPoint" />
            <mxPoint as="offset" />
          </mxGeometry>
        </mxCell>
        <mxCell id="igBMlUZ_AHUM9BY8_jIY-37" value="extends" style="endArrow=open;endSize=12;dashed=1;html=1;rounded=0;" edge="1" parent="1" source="igBMlUZ_AHUM9BY8_jIY-11" target="igBMlUZ_AHUM9BY8_jIY-8">
          <mxGeometry x="0.0081" width="160" relative="1" as="geometry">
            <mxPoint x="422" y="334" as="sourcePoint" />
            <mxPoint x="352" y="406" as="targetPoint" />
            <mxPoint as="offset" />
          </mxGeometry>
        </mxCell>
        <mxCell id="igBMlUZ_AHUM9BY8_jIY-38" value="extends" style="endArrow=open;endSize=12;dashed=1;html=1;rounded=0;" edge="1" parent="1" source="igBMlUZ_AHUM9BY8_jIY-15" target="igBMlUZ_AHUM9BY8_jIY-8">
          <mxGeometry x="0.0081" width="160" relative="1" as="geometry">
            <mxPoint x="432" y="344" as="sourcePoint" />
            <mxPoint x="362" y="416" as="targetPoint" />
            <mxPoint as="offset" />
          </mxGeometry>
        </mxCell>
        <mxCell id="igBMlUZ_AHUM9BY8_jIY-43" value="Search for event" style="ellipse;whiteSpace=wrap;html=1;" vertex="1" parent="1">
          <mxGeometry x="250" y="180" width="120" height="80" as="geometry" />
        </mxCell>
        <mxCell id="igBMlUZ_AHUM9BY8_jIY-44" value="" style="endArrow=none;html=1;rounded=0;" edge="1" parent="1" source="igBMlUZ_AHUM9BY8_jIY-1" target="igBMlUZ_AHUM9BY8_jIY-43">
          <mxGeometry width="50" height="50" relative="1" as="geometry">
            <mxPoint x="220" y="300" as="sourcePoint" />
            <mxPoint x="384" y="306" as="targetPoint" />
            <Array as="points" />
          </mxGeometry>
        </mxCell>
        <mxCell id="igBMlUZ_AHUM9BY8_jIY-45" value="extends" style="endArrow=open;endSize=12;dashed=1;html=1;rounded=0;" edge="1" parent="1" source="igBMlUZ_AHUM9BY8_jIY-10" target="igBMlUZ_AHUM9BY8_jIY-43">
          <mxGeometry x="0.0081" width="160" relative="1" as="geometry">
            <mxPoint x="442" y="300" as="sourcePoint" />
            <mxPoint x="378" y="310" as="targetPoint" />
            <mxPoint as="offset" />
          </mxGeometry>
        </mxCell>
      </root>
    </mxGraphModel>
  </diagram>
</mxfile>
